<svg width="13" height="15" viewBox="0 0 13 15" fill="none" xmlns="http://www.w3.org/2000/svg">
<path d="M10.1618 4.57869L10.1619 4.58827L12.7018 10.2018L12.2977 10.5021C12.298 10.5025 12.2983 10.5029 12.2986 10.5034C12.3503 10.5733 12.3821 10.6568 12.3899 10.7448C12.3979 10.8333 12.3811 10.9221 12.342 11.0011C12.3029 11.08 12.2432 11.1455 12.1703 11.191C12.0974 11.2364 12.0139 11.2601 11.9291 11.26H11.9281L1.45146 11.26L1.44889 11.26C1.36965 11.2604 1.29147 11.2391 1.22254 11.198C1.15355 11.1568 1.0962 11.0971 1.05717 11.0247C1.01812 10.9522 0.999025 10.87 1.0023 10.7868C1.00552 10.7048 1.03034 10.6256 1.07367 10.5574C1.84267 9.40866 2.2883 7.90889 2.54307 6.73191C2.67203 6.13614 2.75487 5.60949 2.80556 5.23125C2.83093 5.04194 2.84831 4.88929 2.85942 4.78315C2.86498 4.73007 2.86897 4.68858 2.8716 4.65991L2.87457 4.62667L2.87535 4.61754L2.87556 4.61489L2.87563 4.61406L2.87566 4.61376C2.87566 4.61365 2.87567 4.61355 2.37389 4.57319L2.87567 4.61355L2.87707 4.59615L2.87726 4.57869C2.88788 3.60637 3.27758 2.67858 3.96006 1.9964C4.64238 1.3144 5.56212 0.932846 6.51949 0.932846C7.47686 0.932846 8.39667 1.3144 9.07897 1.9964C9.76146 2.67858 10.1512 3.60637 10.1618 4.57869Z" stroke="#262D38" stroke-width="1.0068"/>
<path d="M8.1615 12.9341C8.05761 13.2446 7.8597 13.5137 7.59644 13.7032C7.3211 13.9014 6.98944 14.0018 6.65289 13.9895C6.31632 13.9772 5.99247 13.8529 5.7318 13.6349C5.51122 13.4505 5.34623 13.2076 5.25474 12.9341H8.1615Z" stroke="#262D38" stroke-width="1.0068"/>
</svg>
