<svg width="21" height="21" viewBox="0 0 21 21" fill="none" xmlns="http://www.w3.org/2000/svg">
<g clip-path="url(#clip0_0_31004)">
<path d="M0.5 1.5702C0.5 0.778945 1.1575 0.137695 1.96875 0.137695H19.0312C19.8425 0.137695 20.5 0.778945 20.5 1.5702V18.7052C20.5 19.4964 19.8425 20.1377 19.0312 20.1377H1.96875C1.1575 20.1377 0.5 19.4964 0.5 18.7052V1.5702ZM6.67875 16.8802V7.84895H3.6775V16.8802H6.67875ZM5.17875 6.6152C6.225 6.6152 6.87625 5.9227 6.87625 5.0552C6.8575 4.16895 6.22625 3.4952 5.19875 3.4952C4.17125 3.4952 3.5 4.1702 3.5 5.0552C3.5 5.9227 4.15125 6.6152 5.15875 6.6152H5.17875ZM11.3138 16.8802V11.8364C11.3138 11.5664 11.3337 11.2964 11.4137 11.1039C11.63 10.5652 12.1238 10.0064 12.9538 10.0064C14.04 10.0064 14.4738 10.8339 14.4738 12.0489V16.8802H17.475V11.7002C17.475 8.9252 15.995 7.6352 14.02 7.6352C12.4275 7.6352 11.7137 8.5102 11.3138 9.12645V9.1577H11.2938L11.3138 9.12645V7.84895H8.31375C8.35125 8.69645 8.31375 16.8802 8.31375 16.8802H11.3138Z" fill="black"/>
</g>
<defs>
<clipPath id="clip0_0_31004">
<rect width="20" height="20" fill="white" transform="translate(0.5 0.137695)"/>
</clipPath>
</defs>
</svg>
