<svg width="205" height="38" viewBox="0 0 205 38" fill="none" xmlns="http://www.w3.org/2000/svg">
<path d="M50.8326 29.1361H37.431C36.9227 29.1361 36.6738 29.3519 36.6738 29.8236C36.7052 30.3209 36.8601 30.8026 37.1245 31.225C37.3889 31.6474 37.7544 31.9973 38.1881 32.2428C39.2601 32.9836 40.5405 33.3629 41.8431 33.3254C44.2623 33.3254 45.8462 32.6066 46.5719 31.1237H50.5211C50.0148 32.9344 48.9486 34.5385 47.4753 35.7064C45.7083 36.7873 43.6582 37.3147 41.589 37.2206C39.1342 37.3128 36.7433 36.4262 34.9422 34.7556C33.1412 33.0851 32.0774 30.7676 31.985 28.3128C31.9757 28.0738 31.9757 27.8348 31.985 27.5958C31.9395 26.3029 32.1635 25.0147 32.643 23.8131C33.1224 22.6115 33.8467 21.5229 34.7698 20.6164C35.7001 19.716 36.8025 19.0125 38.0109 18.5477C39.2194 18.083 40.5091 17.8667 41.803 17.9117C43.0273 17.8561 44.2503 18.0483 45.3984 18.4769C46.5466 18.9055 47.5964 19.5616 48.4847 20.4058C49.5462 21.5669 50.3135 22.9658 50.722 24.485C51.1306 26.0042 51.1685 27.5992 50.8326 29.1361ZM41.8779 21.7721C40.6075 21.7254 39.3562 22.0918 38.3116 22.8164C37.3747 23.5185 36.7415 24.552 36.5416 25.7056H46.0272C46.1111 25.707 46.1944 25.6918 46.2724 25.661C46.3505 25.6302 46.4216 25.5843 46.4819 25.5259C46.5422 25.4676 46.5904 25.3979 46.6238 25.3209C46.6571 25.244 46.675 25.1612 46.6764 25.0773C46.6499 24.618 46.5155 24.1714 46.2842 23.7738C46.0529 23.3761 45.7311 23.0386 45.3449 22.7886C44.3506 22.0408 43.1186 21.6795 41.8779 21.7721Z" fill="white"/>
<path d="M55.4795 18.2866H59.9925V36.8436H55.4795V18.2866ZM61.3275 27.1631C61.3179 26.803 61.3918 26.4456 61.5433 26.1188C61.823 25.6442 62.1629 25.2078 62.5545 24.8204L68.5505 18.2866H74.0208L66.7822 26.1588C66.5168 26.3755 66.3479 26.6883 66.3122 27.0291C66.3598 27.3543 66.5274 27.6498 66.7822 27.8575L74.4403 36.8488H68.6131L62.5215 29.5928C61.8804 28.9268 61.4631 28.0775 61.3275 27.1631Z" fill="white"/>
<path d="M86.3981 37.191C85.1154 37.232 83.8375 37.0136 82.6412 36.5488C81.4449 36.0841 80.3548 35.3825 79.4362 34.4863C77.6681 32.6085 76.6868 30.1246 76.6939 27.5454C76.701 24.9663 77.6961 22.4879 79.4745 20.6199C81.3989 18.8697 83.9066 17.8999 86.5078 17.8999C89.109 17.8999 91.6167 18.8697 93.5411 20.6199C94.4558 21.5268 95.1721 22.614 95.6443 23.8125C96.1165 25.011 96.3343 26.2946 96.284 27.5818C96.326 28.867 96.1002 30.1469 95.6207 31.34C95.1413 32.5332 94.4188 33.6135 93.4993 34.5124C92.5691 35.413 91.4668 36.1168 90.2583 36.5815C89.0498 37.0462 87.76 37.2624 86.466 37.2171L86.3981 37.191ZM90.121 31.3047C90.6012 30.8009 90.9763 30.2066 91.2243 29.5563C91.4723 28.9061 91.5883 28.213 91.5656 27.5174C91.595 26.821 91.4821 26.126 91.2337 25.4748C90.9853 24.8236 90.6067 24.2299 90.121 23.7301C89.1163 22.7787 87.7853 22.2485 86.4016 22.2485C85.0179 22.2485 83.6869 22.7787 82.6822 23.7301C82.1965 24.2299 81.8179 24.8236 81.5695 25.4748C81.3211 26.126 81.2082 26.821 81.2376 27.5174C81.215 28.2129 81.331 28.9061 81.5791 29.5563C81.8271 30.2065 82.2021 30.8009 82.6822 31.3047C83.6771 32.2765 85.0129 32.8204 86.4037 32.8201C87.7945 32.8198 89.13 32.2752 90.1245 31.3029L90.121 31.3047Z" fill="white"/>
<path d="M115.9 36.9523H111.387V26.5094C111.454 25.4127 111.106 24.3307 110.412 23.4792C110.083 23.1182 109.678 22.8341 109.227 22.647C108.776 22.4599 108.289 22.3744 107.801 22.3966C107.31 22.3791 106.821 22.4667 106.367 22.6534C105.912 22.8401 105.503 23.1216 105.166 23.4792C104.441 24.3154 104.077 25.4053 104.155 26.5094V36.9192H99.6522V26.5111C99.5917 25.3731 99.7587 24.2343 100.143 23.1615C100.528 22.0887 101.122 21.1032 101.892 20.2628C102.634 19.5096 103.523 18.9183 104.504 18.5262C105.486 18.134 106.538 17.9496 107.594 17.9845C108.794 17.9226 109.989 18.1768 111.06 18.7217C112.131 19.2666 113.04 20.0831 113.696 21.0895C114.347 20.0777 115.255 19.2569 116.327 18.7113C117.399 18.1657 118.597 17.9149 119.798 17.9845C120.856 17.9494 121.909 18.1337 122.891 18.5258C123.874 18.9179 124.764 19.5093 125.507 20.2628C126.276 21.0962 126.871 22.0752 127.255 23.1421C127.64 24.209 127.807 25.3421 127.747 26.4746V36.8844H123.257V26.4415C123.323 25.3434 122.975 24.2602 122.282 23.4061C121.953 23.0455 121.548 22.7616 121.097 22.5746C120.646 22.3875 120.159 22.3018 119.671 22.3235C119.18 22.3072 118.692 22.3952 118.237 22.5818C117.783 22.7685 117.374 23.0494 117.036 23.4061C116.321 24.2348 115.958 25.3105 116.025 26.4032L115.9 36.9523Z" fill="white"/>
<path d="M132.25 18.2866H136.775V36.8436H132.262L132.25 18.2866ZM138.098 27.1631C138.088 26.803 138.162 26.4456 138.313 26.1188C138.593 25.6442 138.933 25.2078 139.325 24.8204L145.321 18.2866H150.812L143.55 26.1588C143.285 26.3755 143.116 26.6883 143.081 27.0291C143.128 27.3543 143.296 27.6498 143.55 27.8575L151.209 36.8488H145.361L139.29 29.5928C138.652 28.925 138.235 28.0765 138.098 27.1631Z" fill="white"/>
<path d="M163.183 37.1691C161.898 37.2117 160.618 36.9941 159.419 36.5293C158.221 36.0645 157.129 35.3621 156.209 34.4644C154.437 32.5873 153.454 30.1007 153.465 27.5194C153.476 24.9381 154.48 22.4599 156.268 20.598C158.193 18.849 160.7 17.8799 163.301 17.8799C165.902 17.8799 168.409 18.849 170.334 20.598C171.246 21.5125 171.957 22.6067 172.423 23.8109C172.888 25.0152 173.098 26.3032 173.039 27.593C173.086 28.8751 172.867 30.1532 172.395 31.3461C171.923 32.5391 171.208 33.6211 170.296 34.5236C169.365 35.423 168.262 36.1259 167.054 36.5906C165.846 37.0553 164.557 37.2721 163.263 37.2283L163.183 37.1691ZM166.9 31.2828C167.381 30.7797 167.757 30.1855 168.005 29.5351C168.253 28.8847 168.369 28.1912 168.345 27.4955C168.374 26.7992 168.261 26.1042 168.013 25.453C167.765 24.8018 167.386 24.2081 166.9 23.7082C165.895 22.7573 164.564 22.2273 163.181 22.2273C161.797 22.2273 160.466 22.7573 159.461 23.7082C158.976 24.2081 158.597 24.8018 158.349 25.453C158.1 26.1042 157.987 26.7992 158.017 27.4955C157.993 28.1912 158.109 28.8847 158.357 29.5351C158.605 30.1855 158.98 30.7797 159.461 31.2828C160.454 32.2537 161.788 32.7973 163.177 32.7973C164.565 32.7973 165.899 32.2537 166.892 31.2828H166.9Z" fill="white"/>
<path d="M192.661 36.9531H188.136V26.5103C188.204 25.4135 187.856 24.3315 187.161 23.4801C186.835 23.1198 186.433 22.836 185.984 22.6489C185.535 22.4617 185.05 22.3759 184.564 22.3975C184.073 22.3796 183.583 22.4669 183.127 22.6536C182.672 22.8403 182.262 23.1221 181.924 23.4801C181.199 24.3163 180.835 25.4061 180.913 26.5103V36.9201H176.409V26.5103C176.348 25.3722 176.515 24.2335 176.9 23.1606C177.284 22.0878 177.879 21.1024 178.649 20.2619C179.39 19.5093 180.28 18.9184 181.261 18.5263C182.242 18.1342 183.294 17.9495 184.35 17.9836C185.55 17.9217 186.745 18.1759 187.816 18.7208C188.887 19.2657 189.796 20.0822 190.453 21.0887C191.103 20.0765 192.012 19.2556 193.084 18.71C194.157 18.1644 195.355 17.9137 196.556 17.9836C197.609 17.9473 198.657 18.1284 199.637 18.5156C200.616 18.9028 201.505 19.4878 202.248 20.2341C203.017 21.0674 203.612 22.0464 203.996 23.1133C204.381 24.1802 204.548 25.3133 204.488 26.4459V36.8887H199.963V26.4459C200.032 25.3474 199.684 24.2633 198.988 23.4105C198.66 23.0512 198.258 22.7681 197.81 22.5811C197.361 22.394 196.877 22.3076 196.391 22.3279C195.9 22.3104 195.411 22.3979 194.957 22.5846C194.502 22.7713 194.093 23.0529 193.756 23.4105C193.041 24.2392 192.678 25.3148 192.745 26.4076L192.661 36.9531Z" fill="white"/>
<path d="M12.3416 17.9561H16.8547V28.3989C16.7844 29.4968 17.1347 30.5803 17.8346 31.4291C18.1612 31.7894 18.5632 32.0732 19.0121 32.2603C19.4609 32.4474 19.9455 32.5333 20.4314 32.5117C20.9234 32.5302 21.4137 32.4429 21.8691 32.2559C22.3246 32.0688 22.7346 31.7863 23.0717 31.4274C23.7886 30.5995 24.1517 29.5232 24.0829 28.4303V17.9874H28.6081V28.4303C28.6669 29.5682 28.4991 30.7064 28.1146 31.779C27.7301 32.8516 27.1364 33.8372 26.3681 34.6786C25.6251 35.4311 24.7342 36.0216 23.7517 36.4128C22.7692 36.804 21.7163 36.9875 20.6594 36.9516C19.4571 37.0166 18.2589 36.7638 17.1852 36.2188C16.1116 35.6737 15.2004 34.8556 14.5433 33.8466C13.8929 34.8584 12.9848 35.6787 11.9124 36.2232C10.8399 36.7676 9.6418 37.0167 8.44119 36.9447C7.38863 36.9799 6.34017 36.797 5.36164 36.4077C4.38311 36.0183 3.49567 35.4308 2.75505 34.6821C1.98557 33.8485 1.39091 32.8692 1.00619 31.802C0.621459 30.7348 0.45446 29.6014 0.515052 28.4686V18.0257H5.02811V28.4686C4.96145 29.5667 5.30926 30.6499 6.00278 31.5039C6.33228 31.8644 6.73683 32.1481 7.18792 32.3352C7.63901 32.5222 8.12564 32.608 8.6135 32.5865C9.10231 32.6012 9.58868 32.5123 10.0407 32.3257C10.4927 32.1391 10.9002 31.8591 11.2364 31.5039C11.9518 30.6752 12.3148 29.5996 12.2476 28.5068L12.3416 17.9561Z" fill="white"/>
<path d="M5.5648 10.9069C5.5648 9.5083 4.431 8.37451 3.0324 8.37451C1.63379 8.37451 0.5 9.5083 0.5 10.9069C0.5 12.3055 1.63379 13.4393 3.0324 13.4393C4.431 13.4393 5.5648 12.3055 5.5648 10.9069Z" fill="white"/>
<path d="M15.866 4.40341C15.9626 4.56225 16.0984 4.69355 16.2604 4.78467C16.4224 4.87578 16.6052 4.92365 16.7911 4.92365C16.9769 4.92365 17.1597 4.87578 17.3217 4.78467C17.4837 4.69355 17.6196 4.56225 17.7161 4.40341L18.6786 2.92052L19.4148 1.77877C19.5299 1.60762 19.5965 1.40849 19.6075 1.20254C19.6185 0.996596 19.5734 0.791517 19.4772 0.609093C19.381 0.426668 19.2372 0.27371 19.061 0.166465C18.8849 0.0592207 18.6829 0.00169552 18.4767 0L15.0863 0C14.8824 0.00485247 14.6836 0.0641898 14.5105 0.171848C14.3374 0.279506 14.1962 0.431557 14.1017 0.612207C14.0072 0.792856 13.9628 0.995513 13.9731 1.19913C13.9834 1.40274 14.0481 1.59988 14.1603 1.77007L14.9018 2.92227L15.866 4.40341Z" fill="white"/>
<path d="M25.7823 4.49971C27.0223 4.49971 28.0275 3.4945 28.0275 2.2545C28.0275 1.0145 27.0223 0.00927734 25.7823 0.00927734C24.5423 0.00927734 23.5371 1.0145 23.5371 2.2545C23.5371 3.4945 24.5423 4.49971 25.7823 4.49971Z" fill="white"/>
<path d="M8.38956 3.24504H3.83298C3.57937 3.22673 3.3421 3.11307 3.1689 2.92691C2.9957 2.74075 2.89941 2.49592 2.89941 2.24165C2.89941 1.98738 2.9957 1.74254 3.1689 1.55639C3.3421 1.37023 3.57937 1.25657 3.83298 1.23826H8.38956C8.6531 1.22413 8.91165 1.31412 9.10945 1.48885C9.30725 1.66358 9.42847 1.90904 9.44697 2.17232C9.46546 2.43559 9.37975 2.69559 9.20832 2.89626C9.03689 3.09692 8.79347 3.22219 8.53054 3.24504C8.48361 3.24849 8.43649 3.24849 8.38956 3.24504Z" fill="white"/>
<path d="M27.4916 13.2759H24.0942C23.8547 13.2759 23.6249 13.1807 23.4555 13.0113C23.2861 12.8419 23.1909 12.6121 23.1909 12.3725C23.1909 12.133 23.2861 11.9032 23.4555 11.7338C23.6249 11.5644 23.8547 11.4692 24.0942 11.4692H27.4916C27.7312 11.4692 27.961 11.5644 28.1304 11.7338C28.2998 11.9032 28.395 12.133 28.395 12.3725C28.395 12.6121 28.2998 12.8419 28.1304 13.0113C27.961 13.1807 27.7312 13.2759 27.4916 13.2759Z" fill="white"/>
<path d="M27.4916 13.2759H24.0942C23.8547 13.2759 23.6249 13.1807 23.4555 13.0113C23.2861 12.8419 23.1909 12.6121 23.1909 12.3725C23.1909 12.133 23.2861 11.9032 23.4555 11.7338C23.6249 11.5644 23.8547 11.4692 24.0942 11.4692H27.4916C27.7312 11.4692 27.961 11.5644 28.1304 11.7338C28.2998 11.9032 28.395 12.133 28.395 12.3725C28.395 12.6121 28.2998 12.8419 28.1304 13.0113C27.961 13.1807 27.7312 13.2759 27.4916 13.2759Z" fill="white"/>
<path d="M27.492 8.78191H24.0946C23.8667 8.78249 23.647 8.69692 23.4796 8.54234C23.3121 8.38777 23.2093 8.17562 23.1917 7.94842C23.1741 7.72121 23.243 7.49575 23.3846 7.31722C23.5262 7.13869 23.7301 7.02028 23.9553 6.98573C24.0017 6.98197 24.0482 6.98197 24.0946 6.98573H27.492C27.7309 6.96727 27.9673 7.04446 28.1493 7.20031C28.3312 7.35617 28.4438 7.57793 28.4623 7.81681C28.4808 8.05569 28.4036 8.29212 28.2477 8.47409C28.0919 8.65606 27.8701 8.76867 27.6312 8.78713C27.5848 8.78916 27.5382 8.78741 27.492 8.78191Z" fill="white"/>
<path d="M14.5402 14.504C13.2195 14.4898 11.9582 13.9529 11.0324 13.0108C10.1067 12.0688 9.59187 10.7983 9.6007 9.47754H11.6075C11.6075 10.2553 11.9165 11.0013 12.4664 11.5513C13.0164 12.1013 13.7624 12.4102 14.5402 12.4102C15.318 12.4102 16.0639 12.1013 16.6139 11.5513C17.1639 11.0013 17.4729 10.2553 17.4729 9.47754H19.4797C19.4885 10.7983 18.9737 12.0688 18.0479 13.0108C17.1222 13.9529 15.8609 14.4898 14.5402 14.504Z" fill="white"/>
</svg>
