<svg width="140" height="109" viewBox="0 0 140 109" fill="none" xmlns="http://www.w3.org/2000/svg">
<path d="M42.5955 38.888V13.0196C42.5955 7.22722 47.2072 2.54218 52.9061 2.54218H99.8818C105.581 2.54218 110.192 7.22722 110.192 13.0196V64.1076" stroke="url(#paint0_linear_13_31128)" stroke-width="3.5731" stroke-miterlimit="10" stroke-linecap="round"/>
<path d="M101.087 17.6953H91.5188C90.5792 17.6953 89.8208 18.475 89.8208 19.4324V29.2184C89.8208 30.1758 90.5792 30.9555 91.5188 30.9555H101.087C102.026 30.9555 102.785 30.1758 102.785 29.2184V19.4324C102.785 18.475 102.021 17.6953 101.087 17.6953V17.6953Z" fill="#0958A5"/>
<path d="M81.6406 17.6953H72.0727C71.1331 17.6953 70.3748 18.475 70.3748 19.4324V29.2184C70.3748 30.1758 71.1331 30.9555 72.0727 30.9555H81.6406C82.5802 30.9555 83.3386 30.1758 83.3386 29.2184V19.4324C83.3386 18.475 82.5754 17.6953 81.6406 17.6953V17.6953Z" fill="#0958A5"/>
<path d="M81.8743 39.4828H71.839C71.0282 39.4828 70.3748 40.1538 70.3748 40.9825V51.2434C70.3748 52.0722 71.033 52.7431 71.839 52.7431H81.8743C82.6851 52.7431 83.3386 52.0722 83.3386 51.2434V40.9825C83.3386 40.1538 82.6804 39.4828 81.8743 39.4828Z" fill="#0958A5"/>
<path d="M62.4287 17.6953H52.3935C51.5826 17.6953 50.9292 18.3662 50.9292 19.195V29.4559C50.9292 30.2846 51.5874 30.9555 52.3935 30.9555H62.4287C63.2396 30.9555 63.893 30.2846 63.893 29.4559V19.195C63.893 18.3662 63.2348 17.6953 62.4287 17.6953Z" fill="#D4F0FF"/>
<path d="M100.606 39.4828H91.9997C90.7982 39.4828 89.8208 40.4801 89.8208 41.7093V50.5166C89.8208 51.7458 90.7934 52.7431 91.9997 52.7431H100.606C101.807 52.7431 102.785 51.7458 102.785 50.5166V41.7093C102.785 40.4801 101.807 39.4828 100.606 39.4828Z" fill="#0958A5"/>
<path d="M64.8191 68.8824V94.4156H87.0428V68.8824C87.0428 65.7196 84.4381 63.1593 81.232 63.1593H70.635C67.4237 63.1593 64.8242 65.7247 64.8242 68.8824H64.8191Z" fill="#0958A5"/>
<path d="M49.0771 99.1509H82.4127" stroke="url(#paint1_linear_13_31128)" stroke-width="2.38207" stroke-miterlimit="10" stroke-linecap="round"/>
<path d="M52.0733 82.6005C52.1245 82.5324 52.1654 82.4591 52.2013 82.3753C54.3409 78.3486 55.5592 73.7407 55.5592 68.8447C55.5592 63.9488 54.3409 59.3356 52.2013 55.3089C52.1705 55.2303 52.1245 55.1518 52.0733 55.0837C47.3282 46.3548 38.2168 40.4273 27.7796 40.4273C27.7028 40.4273 27.6311 40.4273 27.5544 40.4325C27.5032 40.4325 27.4469 40.4325 27.3957 40.4325C17.1172 40.5792 8.16956 46.4595 3.48588 55.0837C3.4347 55.1518 3.39375 55.2251 3.35792 55.3089C1.21827 59.3356 0 63.9488 0 68.8447C0 73.7407 1.21827 78.3538 3.35792 82.3753C3.38863 82.4539 3.4347 82.5324 3.48588 82.6005C8.16956 91.2247 17.1121 97.0998 27.3854 97.2464C27.4264 97.2517 27.4725 97.2569 27.5134 97.2569C27.5339 97.2569 27.5492 97.2569 27.5697 97.2516C27.6363 97.2516 27.7028 97.2516 27.7693 97.2516C27.7693 97.2516 27.7745 97.2516 27.7796 97.2516C27.7796 97.2516 27.7898 97.2516 27.7949 97.2516C38.227 97.2516 47.3333 91.3242 52.0733 82.5952V82.6005ZM2.0731 69.892H12.5922C12.715 73.6726 13.4982 77.3799 14.9008 80.9353H4.9345C3.2453 77.605 2.22667 73.8611 2.0731 69.892ZM4.9345 56.7541H14.9059C13.5033 60.3095 12.7202 64.0168 12.5973 67.7975H2.0731C2.22667 63.8283 3.24018 60.0844 4.9345 56.7541ZM53.4809 67.7975H42.6957C42.5728 64.0168 41.7897 60.3095 40.3871 56.7541H50.6196C52.3087 60.0844 53.3274 63.8283 53.4809 67.7975ZM40.6328 67.7975H28.7982V56.7541H38.1553C39.6603 60.2991 40.4997 64.0116 40.6328 67.7975ZM28.7982 54.6596V43.7576C32.3762 47.0565 35.1967 50.7376 37.1879 54.6596H28.7982ZM26.7507 43.5167V54.6596H18.0949C20.1373 50.6433 23.0498 46.8784 26.7507 43.5167ZM26.7507 56.7541V67.7975H14.655C14.7881 64.0168 15.6276 60.2991 17.1325 56.7541H26.7558H26.7507ZM14.655 69.892H26.7507V80.9353H17.1274C15.6225 77.3904 14.783 73.6778 14.6499 69.892H14.655ZM26.7507 83.0299V94.1727C23.0498 90.811 20.1373 87.0461 18.0949 83.0299H26.7507ZM28.7982 93.9318V83.0299H37.1879C35.1967 86.9518 32.3762 90.633 28.7982 93.9318ZM28.7982 80.9353V69.892H40.6328C40.4997 73.6726 39.6603 77.3904 38.1553 80.9353H28.7982ZM42.6906 69.892H53.4758C53.3223 73.8611 52.3087 77.605 50.6144 80.9353H40.382C41.7845 77.3799 42.5677 73.6726 42.6906 69.892ZM49.432 54.6596H39.4811C37.4541 50.3553 34.4954 46.3129 30.6973 42.6946C38.5597 43.611 45.3523 48.1561 49.432 54.6596ZM24.5445 42.7365C20.7669 46.3391 17.8236 50.3658 15.8017 54.6596H6.12205C10.1505 48.2451 16.8152 43.7314 24.5445 42.7365ZM6.12205 83.0299H15.8068C17.8287 87.3184 20.7669 91.3503 24.5445 94.9529C16.8152 93.958 10.1454 89.4443 6.12205 83.0299ZM30.7024 94.9896C34.5005 91.3765 37.4541 87.3341 39.4862 83.0299H49.4371C45.3575 89.5281 38.5648 94.0784 30.7024 94.9896Z" fill="url(#paint2_linear_13_31128)"/>
<path d="M138.841 61.6548C139.053 60.6242 138.154 59.5606 137.118 59.6167C128.609 60.097 97.2981 64.3321 92.8714 100.575C92.829 100.914 92.9162 101.254 93.0862 101.544C93.0957 101.534 93.1014 101.522 93.1148 101.513L102.96 92.4496L102.89 92.4459L103.501 80.4472C103.513 80.252 103.675 80.0981 103.867 80.1059C104.058 80.1138 104.205 80.2791 104.197 80.475L103.661 90.9898C103.646 91.3051 104.012 91.4789 104.242 91.268L117.481 79.0793C117.551 79.0145 117.593 78.925 117.596 78.829L118.224 66.6038C118.236 66.4086 118.398 66.2547 118.59 66.2625C118.781 66.2704 118.928 66.4357 118.92 66.6316L118.363 77.4526C118.348 77.7679 118.713 77.9456 118.944 77.7307L130.611 66.989C130.754 66.8561 130.972 66.8684 131.103 67.0109C131.233 67.1574 131.217 67.38 131.074 67.513L111.867 85.1969C111.64 85.4084 111.764 85.7912 112.067 85.8137L125.204 86.8714C125.398 86.8878 125.535 87.0597 125.52 87.2542C125.505 87.4488 125.332 87.5968 125.141 87.5811L110.705 86.4146C110.608 86.4065 110.516 86.4394 110.442 86.5075L93.5822 102.033C93.5822 102.033 93.5644 102.046 93.5555 102.053C93.771 102.206 94.0259 102.309 94.2978 102.33C101.444 102.849 130.477 102.356 138.841 61.6548V61.6548Z" fill="url(#paint3_linear_13_31128)"/>
<defs>
<linearGradient id="paint0_linear_13_31128" x1="36.0183" y1="33.299" x2="110.192" y2="33.1131" gradientUnits="userSpaceOnUse">
<stop stop-color="#0958A5"/>
<stop offset="1" stop-color="#59B224"/>
</linearGradient>
<linearGradient id="paint1_linear_13_31128" x1="45.8336" y1="99.6505" x2="82.2022" y2="96.8828" gradientUnits="userSpaceOnUse">
<stop stop-color="#0958A5"/>
<stop offset="1" stop-color="#59B224"/>
</linearGradient>
<linearGradient id="paint2_linear_13_31128" x1="-5.40589" y1="68.8183" x2="55.5592" y2="68.6822" gradientUnits="userSpaceOnUse">
<stop stop-color="#0958A5"/>
<stop offset="1" stop-color="#59B224"/>
</linearGradient>
<linearGradient id="paint3_linear_13_31128" x1="139.459" y1="50.8246" x2="84.851" y2="107.459" gradientUnits="userSpaceOnUse">
<stop stop-color="#FF9900"/>
<stop offset="1" stop-color="#59B224" stop-opacity="0.2"/>
</linearGradient>
</defs>
</svg>
