<svg width="140" height="165" viewBox="0 0 140 165" fill="none" xmlns="http://www.w3.org/2000/svg">
<path d="M40.922 85.4784C40.6462 85.7348 40.4005 85.9597 40.1882 86.1519L22.4792 75.062C22.4838 75.0369 22.4883 75.0119 22.4928 74.987L22.9782 72.3007L20.3656 72.9249L3.53398 76.9466L3.16 76.7126C11.391 65.6817 24.4245 57.8648 27.3556 56.1888L27.8771 55.8907L28.1039 55.3271C35.143 37.84 45.5455 28.2956 54.1256 23.1133C58.4253 20.5162 62.2812 19.0068 65.0474 18.1488C66.2134 17.7871 67.1846 17.5415 67.9121 17.3792C73.2424 38.4757 64.1278 57.4639 54.0528 70.8275L53.6695 71.3359L53.6988 71.9793C53.8339 74.9513 54.0842 88.9959 48.2473 105.025L48.0678 104.911L43.7997 86.403L43.1162 83.4387L40.922 85.4784Z" stroke="url(#paint0_linear_13_31121)" stroke-width="3.51431"/>
<path d="M59.5575 41.7345C58.2156 44.0862 55.2851 44.8535 53.0267 43.5052C50.7683 42.157 49.9801 39.1696 51.322 36.818C52.6639 34.4663 55.5944 33.699 57.8528 35.0473C60.1112 36.3955 60.8994 39.3829 59.5575 41.7345Z" stroke="url(#paint1_linear_13_31121)" stroke-width="3.51431"/>
<path d="M18.5607 85.2624L20.3854 82.2142L35.9012 91.9322L34.0765 94.9803L18.5607 85.2624Z" stroke="white" stroke-width="3.51431"/>
<path d="M83.5576 126.255C72.6751 147.397 50.6271 157.413 34.3121 148.627C17.997 139.84 13.593 115.579 24.4754 94.4366" stroke="#FFBB00" stroke-width="3.51431" stroke-linecap="round"/>
<path d="M123.011 54.1231C123.011 64.4586 114.81 72.776 104.768 72.776C94.7267 72.776 86.5257 64.4586 86.5257 54.1231C86.5257 43.7875 94.7267 35.4702 104.768 35.4702C114.81 35.4702 123.011 43.7875 123.011 54.1231Z" stroke="url(#paint2_linear_13_31121)" stroke-width="3.51431"/>
<path d="M104.767 113.593C90.9846 113.593 78.9016 106.14 72.168 94.9403C78.9018 83.7407 90.9915 76.2874 104.767 76.2874C118.549 76.2874 130.632 83.7405 137.366 94.9403C130.632 106.14 118.549 113.593 104.767 113.593Z" stroke="url(#paint3_linear_13_31121)" stroke-width="3.51431"/>
<defs>
<linearGradient id="paint0_linear_13_31121" x1="17.4318" y1="36.5504" x2="71.9923" y2="67.5775" gradientUnits="userSpaceOnUse">
<stop stop-color="#0958A5"/>
<stop offset="1" stop-color="#59B224"/>
</linearGradient>
<linearGradient id="paint1_linear_13_31121" x1="69.2683" y1="30.2512" x2="2.11405" y2="59.2408" gradientUnits="userSpaceOnUse">
<stop stop-color="white"/>
<stop offset="1" stop-color="#0958A5"/>
</linearGradient>
<linearGradient id="paint2_linear_13_31121" x1="80.8766" y1="54.106" x2="124.768" y2="54.0078" gradientUnits="userSpaceOnUse">
<stop stop-color="#0958A5"/>
<stop offset="1" stop-color="#59B224"/>
</linearGradient>
<linearGradient id="paint3_linear_13_31121" x1="63.3936" y1="94.9232" x2="139.4" y2="94.6287" gradientUnits="userSpaceOnUse">
<stop stop-color="#0958A5"/>
<stop offset="1" stop-color="#59B224"/>
</linearGradient>
</defs>
</svg>
