<svg width="21" height="21" viewBox="0 0 21 21" fill="none" xmlns="http://www.w3.org/2000/svg">
<g clip-path="url(#clip0_0_31009)">
<path d="M10.6667 6.8042C9.78265 6.8042 8.93481 7.15539 8.30968 7.78051C7.68456 8.40563 7.33337 9.25348 7.33337 10.1375C7.33337 11.0216 7.68456 11.8694 8.30968 12.4946C8.93481 13.1197 9.78265 13.4709 10.6667 13.4709C11.5508 13.4709 12.3986 13.1197 13.0237 12.4946C13.6489 11.8694 14 11.0216 14 10.1375C14 9.25348 13.6489 8.40563 13.0237 7.78051C12.3986 7.15539 11.5508 6.8042 10.6667 6.8042Z" fill="black"/>
<path fill-rule="evenodd" clip-rule="evenodd" d="M6.66675 0.137695C5.07545 0.137695 3.54933 0.769836 2.42411 1.89505C1.29889 3.02027 0.666748 4.5464 0.666748 6.1377L0.666748 14.1377C0.666748 15.729 1.29889 17.2551 2.42411 18.3803C3.54933 19.5056 5.07545 20.1377 6.66675 20.1377H14.6667C16.258 20.1377 17.7842 19.5056 18.9094 18.3803C20.0346 17.2551 20.6667 15.729 20.6667 14.1377V6.1377C20.6667 4.5464 20.0346 3.02027 18.9094 1.89505C17.7842 0.769836 16.258 0.137695 14.6667 0.137695L6.66675 0.137695ZM6.00008 10.1377C6.00008 8.90002 6.49175 7.71303 7.36692 6.83786C8.24209 5.96269 9.42907 5.47103 10.6667 5.47103C11.9044 5.47103 13.0914 5.96269 13.9666 6.83786C14.8417 7.71303 15.3334 8.90002 15.3334 10.1377C15.3334 11.3754 14.8417 12.5624 13.9666 13.4375C13.0914 14.3127 11.9044 14.8044 10.6667 14.8044C9.42907 14.8044 8.24209 14.3127 7.36692 13.4375C6.49175 12.5624 6.00008 11.3754 6.00008 10.1377ZM15.3334 5.47103H16.6667V4.1377H15.3334V5.47103Z" fill="black"/>
</g>
<defs>
<clipPath id="clip0_0_31009">
<rect width="20" height="20" fill="white" transform="translate(0.666748 0.137695)"/>
</clipPath>
</defs>
</svg>
