<svg width="24" height="24" viewBox="0 0 24 24" fill="none" xmlns="http://www.w3.org/2000/svg">
<circle cx="12" cy="12" r="12" fill="#F7F7F7"/>
<path d="M12.3385 7.31817C10.1683 7.14528 8.34766 8.65807 8.34766 10.5481C8.34766 12.2023 9.61084 13.8723 11.5112 16.4617C11.7412 16.7741 12.2567 16.7741 12.4867 16.4617C14.345 13.9312 15.5927 12.2789 15.6502 10.662C15.71 8.96063 14.2455 7.47141 12.3385 7.31817ZM12.0001 11.8231C11.2678 11.8231 10.6727 11.2946 10.6727 10.6443C10.6727 9.99404 11.2678 9.46554 12.0001 9.46554C12.7323 9.46554 13.3274 9.99404 13.3274 10.6443C13.3274 11.2946 12.7323 11.8231 12.0001 11.8231Z" fill="#0958A5"/>
</svg>
