<svg width="52" height="69" viewBox="0 0 52 69" fill="none" xmlns="http://www.w3.org/2000/svg">
<g opacity="0.3">
<path d="M21.8998 33.7302H30.2451V53.0406C30.1151 55.0707 30.763 57.0742 32.057 58.6438C32.661 59.31 33.4045 59.8349 34.2345 60.1809C35.0645 60.5269 35.9606 60.6856 36.8589 60.6457C37.7687 60.6798 38.6753 60.5186 39.5175 60.1727C40.3597 59.8268 41.118 59.3044 41.7412 58.6406C43.0669 57.1098 43.7384 55.1196 43.6111 53.0985V33.7881H51.979V53.0985C52.0876 55.2027 51.7773 57.3075 51.0663 59.2908C50.3553 61.2742 49.2576 63.0967 47.8369 64.6526C46.4629 66.0441 44.8156 67.136 42.9987 67.8594C41.1819 68.5828 39.2349 68.9221 37.2805 68.8558C35.0573 68.9759 32.8416 68.5085 30.8563 67.5006C28.8711 66.4927 27.1861 64.9799 25.971 63.1142C24.7684 64.9851 23.0892 66.5019 21.106 67.5087C19.1229 68.5156 16.9074 68.9761 14.6873 68.8429C12.741 68.908 10.8022 68.5699 8.99277 67.8499C7.18333 67.1299 5.54232 66.0435 4.1728 64.659C2.74993 63.1176 1.65032 61.3068 0.938897 59.3334C0.227478 57.36 -0.0813267 55.264 0.0307158 53.1693V33.8589H8.37603V53.1693C8.25276 55.2 8.89592 57.2029 10.1783 58.7822C10.7876 59.4487 11.5357 59.9734 12.3698 60.3193C13.204 60.6651 14.1038 60.8238 15.0059 60.7841C15.9098 60.8111 16.8092 60.6468 17.6451 60.3018C18.4809 59.9568 19.2344 59.4389 19.8561 58.7822C21.179 57.2498 21.8501 55.2608 21.726 53.2401L21.8998 33.7302Z" fill="#767676"/>
<path d="M9.36555 20.7138C9.36555 18.1276 7.269 16.031 4.68278 16.031C2.09655 16.031 0 18.1276 0 20.7138C0 23.3 2.09655 25.3966 4.68278 25.3966C7.269 25.3966 9.36555 23.3 9.36555 20.7138Z" fill="#767676"/>
<path d="M28.4077 8.68455C28.5862 8.97827 28.8374 9.22106 29.137 9.38955C29.4366 9.55804 29.7745 9.64654 30.1182 9.64654C30.462 9.64654 30.7999 9.55804 31.0995 9.38955C31.3991 9.22106 31.6503 8.97827 31.8288 8.68455L33.6086 5.94247L34.97 3.8312C35.1828 3.51471 35.3059 3.1465 35.3262 2.76567C35.3465 2.38485 35.2633 2.00562 35.0854 1.66829C34.9075 1.33096 34.6415 1.04812 34.3158 0.849811C33.99 0.6515 33.6166 0.545127 33.2353 0.541992H26.9658C26.5889 0.550965 26.2213 0.660689 25.9012 0.859764C25.581 1.05884 25.32 1.34001 25.1453 1.67405C24.9705 2.0081 24.8884 2.38284 24.9075 2.75935C24.9265 3.13586 25.0461 3.5004 25.2536 3.81511L26.6247 5.94569L28.4077 8.68455Z" fill="#767676"/>
<path d="M46.746 8.86061C49.0389 8.86061 50.8977 7.00181 50.8977 4.70887C50.8977 2.41593 49.0389 0.557129 46.746 0.557129C44.453 0.557129 42.5942 2.41593 42.5942 4.70887C42.5942 7.00181 44.453 8.86061 46.746 8.86061Z" fill="#767676"/>
<path d="M14.5891 6.53228H6.16332C5.69436 6.49843 5.25561 6.28825 4.93533 5.94402C4.61506 5.59979 4.43701 5.14705 4.43701 4.67687C4.43701 4.20669 4.61506 3.75395 4.93533 3.40972C5.25561 3.06549 5.69436 2.85531 6.16332 2.82146H14.5891C15.0764 2.79532 15.5545 2.96174 15.9203 3.28484C16.2861 3.60793 16.5102 4.06183 16.5444 4.54866C16.5786 5.0355 16.4201 5.51627 16.1031 5.88734C15.7861 6.2584 15.336 6.49003 14.8498 6.53228C14.763 6.53866 14.6759 6.53866 14.5891 6.53228Z" fill="#767676"/>
<path d="M49.9078 25.0865H43.6254C43.1824 25.0865 42.7576 24.9105 42.4443 24.5973C42.1311 24.284 41.9551 23.8591 41.9551 23.4161C41.9551 22.9731 42.1311 22.5483 42.4443 22.235C42.7576 21.9218 43.1824 21.7458 43.6254 21.7458H49.9078C50.3508 21.7458 50.7756 21.9218 51.0889 22.235C51.4021 22.5483 51.5781 22.9731 51.5781 23.4161C51.5781 23.8591 51.4021 24.284 51.0889 24.5973C50.7756 24.9105 50.3508 25.0865 49.9078 25.0865V25.0865Z" fill="#767676"/>
<path d="M49.912 16.7716H43.6297C43.2083 16.7726 42.8021 16.6144 42.4924 16.3286C42.1828 16.0427 41.9926 15.6504 41.9601 15.2303C41.9275 14.8102 42.0549 14.3933 42.3168 14.0631C42.5787 13.733 42.9557 13.514 43.3722 13.4502C43.4579 13.4432 43.544 13.4432 43.6297 13.4502H49.912C50.3537 13.416 50.7909 13.5588 51.1274 13.847C51.4639 14.1352 51.6721 14.5452 51.7063 14.987C51.7404 15.4287 51.5977 15.8659 51.3095 16.2024C51.0213 16.5389 50.6112 16.7471 50.1695 16.7812C50.0835 16.785 49.9974 16.7817 49.912 16.7716V16.7716Z" fill="#767676"/>
<path d="M25.9578 27.357C23.5156 27.3307 21.1833 26.3378 19.4714 24.5958C17.7596 22.8538 16.8076 20.5045 16.8239 18.0623H20.5348C20.5348 19.5005 21.1061 20.8799 22.1231 21.8969C23.1401 22.9139 24.5195 23.4853 25.9578 23.4853C27.396 23.4853 28.7754 22.9139 29.7924 21.8969C30.8094 20.8799 31.3808 19.5005 31.3808 18.0623H35.0916C35.1079 20.5045 34.156 22.8538 32.4441 24.5958C30.7323 26.3378 28.4 27.3307 25.9578 27.357V27.357Z" fill="#767676"/>
</g>
</svg>
