<svg width="151" height="28" viewBox="0 0 151 28" fill="none" xmlns="http://www.w3.org/2000/svg">
<path d="M37.2582 21.6111H27.3384C26.9622 21.6111 26.7779 21.7708 26.7779 22.1199C26.8012 22.4881 26.9158 22.8446 27.1115 23.1573C27.3072 23.47 27.5778 23.7289 27.8988 23.9107C28.6923 24.459 29.6401 24.7397 30.6042 24.712C32.3949 24.712 33.5673 24.1799 34.1045 23.0823H37.0276C36.6529 24.4226 35.8637 25.6099 34.7731 26.4744C33.4652 27.2745 31.9478 27.6648 30.4161 27.5952C28.5991 27.6635 26.8294 27.0072 25.4962 25.7707C24.1631 24.5341 23.3757 22.8187 23.3073 21.0017C23.3004 20.8248 23.3004 20.6479 23.3073 20.4709C23.2736 19.5139 23.4394 18.5604 23.7943 17.671C24.1492 16.7816 24.6853 15.9758 25.3685 15.3049C26.0572 14.6384 26.8732 14.1176 27.7676 13.7736C28.6621 13.4296 29.6168 13.2695 30.5746 13.3029C31.4808 13.2616 32.386 13.4039 33.2359 13.7212C34.0857 14.0384 34.8628 14.5241 35.5203 15.149C36.306 16.0084 36.8739 17.0439 37.1764 18.1683C37.4788 19.2928 37.5069 20.4735 37.2582 21.6111ZM30.63 16.1603C29.6896 16.1257 28.7634 16.3969 27.9902 16.9333C27.2967 17.4529 26.828 18.218 26.68 19.0718H33.7013C33.7633 19.0729 33.825 19.0616 33.8828 19.0388C33.9405 19.016 33.9932 18.982 34.0379 18.9388C34.0825 18.8957 34.1182 18.8441 34.1429 18.7871C34.1676 18.7301 34.1808 18.6689 34.1818 18.6068C34.1622 18.2668 34.0627 17.9363 33.8915 17.6419C33.7203 17.3476 33.4821 17.0977 33.1962 16.9127C32.4603 16.3591 31.5483 16.0918 30.63 16.1603Z" fill="black"/>
<path d="M40.6959 13.5842H44.0365V27.3201H40.6959V13.5842ZM45.0246 20.1545C45.0175 19.888 45.0722 19.6234 45.1843 19.3816C45.3914 19.0303 45.643 18.7073 45.9328 18.4205L50.371 13.5842H54.4201L49.0621 19.4112C48.8657 19.5716 48.7407 19.8031 48.7143 20.0553C48.7495 20.2961 48.8736 20.5149 49.0621 20.6686L54.7306 27.3239H50.4174L45.9084 21.953C45.4339 21.46 45.1249 20.8314 45.0246 20.1545Z" fill="black"/>
<path d="M63.5811 27.5751C62.6316 27.6054 61.6858 27.4438 60.8003 27.0998C59.9148 26.7558 59.1079 26.2365 58.4279 25.5731C57.1192 24.1831 56.3928 22.3446 56.3981 20.4355C56.4034 18.5264 57.1399 16.6919 58.4563 15.3092C59.8807 14.0137 61.7369 13.2959 63.6623 13.2959C65.5877 13.2959 67.4439 14.0137 68.8683 15.3092C69.5454 15.9805 70.0756 16.7853 70.4251 17.6724C70.7746 18.5595 70.9359 19.5096 70.8986 20.4624C70.9297 21.4137 70.7625 22.361 70.4077 23.2442C70.0528 24.1274 69.518 24.9271 68.8374 25.5924C68.1489 26.259 67.3329 26.7799 66.4384 27.1239C65.5439 27.4679 64.5892 27.6279 63.6314 27.5944L63.5811 27.5751ZM66.3368 23.2181C66.6923 22.8452 66.9699 22.4053 67.1535 21.924C67.337 21.4426 67.4229 20.9296 67.4061 20.4147C67.4279 19.8993 67.3443 19.3848 67.1604 18.9028C66.9766 18.4208 66.6963 17.9814 66.3368 17.6114C65.5931 16.9072 64.6079 16.5147 63.5837 16.5147C62.5595 16.5147 61.5743 16.9072 60.8306 17.6114C60.4711 17.9814 60.1908 18.4208 60.007 18.9028C59.8231 19.3848 59.7395 19.8993 59.7613 20.4147C59.7446 20.9296 59.8305 21.4426 60.0141 21.9239C60.1977 22.4052 60.4752 22.8451 60.8306 23.2181C61.5671 23.9374 62.5558 24.34 63.5853 24.3398C64.6147 24.3395 65.6033 23.9365 66.3394 23.2168L66.3368 23.2181Z" fill="black"/>
<path d="M85.4187 27.3964H82.0782V19.6666C82.1285 18.8549 81.8708 18.054 81.3567 17.4237C81.1132 17.1565 80.8138 16.9462 80.4798 16.8077C80.1458 16.6692 79.7855 16.606 79.4243 16.6224C79.0609 16.6095 78.6989 16.6742 78.3625 16.8124C78.0262 16.9506 77.7232 17.159 77.4738 17.4237C76.937 18.0427 76.6678 18.8494 76.7253 19.6666V27.3719H73.3925V19.6679C73.3477 18.8255 73.4713 17.9827 73.756 17.1885C74.0407 16.3944 74.4807 15.665 75.0505 15.0429C75.5993 14.4854 76.2576 14.0477 76.984 13.7575C77.7105 13.4672 78.4892 13.3307 79.271 13.3566C80.1592 13.3107 81.0438 13.4989 81.8365 13.9022C82.6291 14.3056 83.302 14.9099 83.7878 15.6549C84.2694 14.9059 84.9415 14.2984 85.7351 13.8945C86.5288 13.4907 87.4155 13.305 88.3045 13.3566C89.0872 13.3306 89.8667 13.467 90.5939 13.7572C91.3212 14.0475 91.9805 14.4852 92.5301 15.0429C93.0995 15.6598 93.5395 16.3845 93.8243 17.1742C94.109 17.9639 94.2328 18.8026 94.1882 19.6409V27.3462H90.8644V19.6164C90.9137 18.8036 90.6563 18.0018 90.1429 17.3696C89.8991 17.1027 89.5997 16.8926 89.2658 16.7541C88.9319 16.6156 88.5716 16.5522 88.2105 16.5683C87.8472 16.5562 87.4854 16.6213 87.1492 16.7595C86.8129 16.8976 86.5099 17.1056 86.26 17.3696C85.7304 17.983 85.4618 18.7792 85.5115 19.5881L85.4187 27.3964Z" fill="black"/>
<path d="M97.5221 13.5842H100.872V27.3201H97.5311L97.5221 13.5842ZM101.851 20.1545C101.844 19.888 101.898 19.6234 102.011 19.3816C102.218 19.0303 102.469 18.7073 102.759 18.4205L107.197 13.5842H111.262L105.887 19.4112C105.691 19.5716 105.566 19.8031 105.539 20.0553C105.574 20.2961 105.698 20.5149 105.887 20.6686L111.556 27.3239H107.227L102.733 21.953C102.261 21.4587 101.953 20.8306 101.851 20.1545Z" fill="black"/>
<path d="M120.417 27.5605C119.466 27.5921 118.518 27.431 117.631 27.0869C116.744 26.7429 115.936 26.223 115.255 25.5585C113.943 24.1691 113.216 22.3285 113.224 20.4178C113.232 18.5072 113.975 16.6728 115.299 15.2947C116.723 14 118.579 13.2827 120.505 13.2827C122.43 13.2827 124.286 14 125.711 15.2947C126.385 15.9716 126.912 16.7815 127.256 17.6729C127.601 18.5642 127.756 19.5176 127.713 20.4723C127.748 21.4214 127.585 22.3673 127.236 23.2504C126.886 24.1334 126.357 24.9343 125.682 25.6023C124.993 26.2681 124.177 26.7884 123.283 27.1323C122.388 27.4762 121.434 27.6368 120.476 27.6043L120.417 27.5605ZM123.169 23.2035C123.525 22.8311 123.803 22.3913 123.987 21.9098C124.17 21.4284 124.256 20.9151 124.238 20.4002C124.26 19.8847 124.176 19.3703 123.992 18.8883C123.809 18.4063 123.528 17.9668 123.169 17.5968C122.425 16.8929 121.44 16.5007 120.416 16.5007C119.392 16.5007 118.406 16.8929 117.663 17.5968C117.303 17.9668 117.023 18.4063 116.839 18.8883C116.655 19.3703 116.572 19.8847 116.593 20.4002C116.576 20.9151 116.661 21.4284 116.845 21.9098C117.028 22.3913 117.306 22.8311 117.663 23.2035C118.398 23.9222 119.385 24.3246 120.412 24.3246C121.44 24.3246 122.427 23.9222 123.162 23.2035H123.169Z" fill="black"/>
<path d="M142.236 27.3978H138.886V19.668C138.936 18.8562 138.679 18.0553 138.165 17.4251C137.923 17.1584 137.625 16.9483 137.293 16.8098C136.961 16.6713 136.602 16.6078 136.242 16.6238C135.878 16.6105 135.516 16.6751 135.179 16.8133C134.842 16.9515 134.538 17.1601 134.288 17.4251C133.751 18.044 133.482 18.8507 133.54 19.668V27.3733H130.205V19.668C130.161 18.8256 130.284 17.9827 130.569 17.1886C130.854 16.3945 131.294 15.6651 131.864 15.043C132.413 14.486 133.071 14.0486 133.797 13.7583C134.524 13.4681 135.302 13.3313 136.084 13.3566C136.972 13.3108 137.857 13.499 138.649 13.9023C139.442 14.3056 140.115 14.91 140.601 15.655C141.083 14.9058 141.755 14.2981 142.549 13.8943C143.343 13.4904 144.23 13.3049 145.119 13.3566C145.898 13.3297 146.674 13.4638 147.399 13.7504C148.124 14.037 148.782 14.47 149.332 15.0224C149.901 15.6393 150.341 16.3639 150.626 17.1536C150.911 17.9433 151.034 18.7821 150.99 19.6203V27.3501H147.64V19.6203C147.691 18.8073 147.434 18.0048 146.919 17.3735C146.676 17.1076 146.378 16.8981 146.046 16.7596C145.714 16.6212 145.356 16.5572 144.996 16.5722C144.633 16.5593 144.271 16.6241 143.935 16.7623C143.598 16.9004 143.295 17.1089 143.046 17.3735C142.516 17.9869 142.248 18.7832 142.297 19.592L142.236 27.3978Z" fill="black"/>
<path d="M19.9776 9.87509H17.4628C17.2855 9.87509 17.1154 9.80465 16.99 9.67926C16.8646 9.55387 16.7942 9.3838 16.7942 9.20647C16.7942 9.02914 16.8646 8.85907 16.99 8.73368C17.1154 8.60828 17.2855 8.53784 17.4628 8.53784H19.9776C20.1549 8.53784 20.325 8.60828 20.4504 8.73368C20.5758 8.85907 20.6462 9.02914 20.6462 9.20647C20.6462 9.3838 20.5758 9.55387 20.4504 9.67926C20.325 9.80465 20.1549 9.87509 19.9776 9.87509Z" fill="black"/>
<path d="M8.76624 13.335H12.1068V21.0647C12.0548 21.8774 12.3141 22.6794 12.8321 23.3077C13.0739 23.5743 13.3715 23.7844 13.7037 23.9229C14.0359 24.0614 14.3946 24.125 14.7542 24.109C15.1184 24.1227 15.4813 24.0581 15.8185 23.9196C16.1556 23.7812 16.4591 23.5721 16.7086 23.3064C17.2392 22.6936 17.508 21.8969 17.4571 21.0879V13.3582H20.8067V21.0879C20.8501 21.9302 20.726 22.7727 20.4413 23.5667C20.1567 24.3606 19.7173 25.0901 19.1486 25.7129C18.5986 26.2699 17.9392 26.707 17.212 26.9966C16.4847 27.2861 15.7053 27.4219 14.923 27.3954C14.0331 27.4435 13.1462 27.2564 12.3515 26.8529C11.5568 26.4495 10.8823 25.8439 10.3959 25.0971C9.91452 25.846 9.24235 26.4532 8.44852 26.8562C7.65469 27.2592 6.76785 27.4436 5.87917 27.3903C5.10007 27.4163 4.32399 27.281 3.59969 26.9928C2.87539 26.7046 2.21851 26.2697 1.67031 25.7155C1.10074 25.0985 0.660579 24.3736 0.375805 23.5837C0.0910306 22.7938 -0.0325811 21.9548 0.0122684 21.1163V13.3865H3.35282V21.1163C3.30348 21.9291 3.56093 22.7309 4.07427 23.3631C4.31816 23.6298 4.61761 23.8399 4.9515 23.9783C5.28539 24.1168 5.6456 24.1803 6.00671 24.1644C6.36852 24.1752 6.72853 24.1094 7.06313 23.9713C7.39772 23.8332 7.69933 23.6259 7.94817 23.3631C8.47774 22.7497 8.74637 21.9535 8.69667 21.1446L8.76624 13.335Z" fill="black"/>
<path d="M3.74894 8.12471C3.74894 7.08947 2.90971 6.25024 1.87447 6.25024C0.839229 6.25024 0 7.08947 0 8.12471C0 9.15996 0.839229 9.99919 1.87447 9.99919C2.90971 9.99919 3.74894 9.15996 3.74894 8.12471Z" fill="#0958A5"/>
<path d="M11.3714 3.30968C11.4429 3.42725 11.5434 3.52444 11.6633 3.59189C11.7833 3.65933 11.9185 3.69476 12.0561 3.69476C12.1937 3.69476 12.329 3.65933 12.4489 3.59189C12.5689 3.52444 12.6694 3.42725 12.7409 3.30968L13.4533 2.21205L13.9982 1.36693C14.0834 1.24025 14.1327 1.09285 14.1408 0.940411C14.149 0.787969 14.1156 0.636171 14.0444 0.501141C13.9732 0.366111 13.8668 0.252892 13.7364 0.17351C13.606 0.0941279 13.4565 0.051548 13.3038 0.050293L10.7942 0.050293C10.6434 0.0538847 10.4962 0.097806 10.3681 0.177494C10.2399 0.257182 10.1355 0.36973 10.0655 0.503446C9.99556 0.637162 9.96269 0.787168 9.97032 0.937881C9.97794 1.08859 10.0258 1.23452 10.1089 1.36049L10.6577 2.21334L11.3714 3.30968Z" fill="#FF9900"/>
<path d="M18.7121 3.38069C19.6299 3.38069 20.374 2.63663 20.374 1.71879C20.374 0.800944 19.6299 0.0568848 18.7121 0.0568848C17.7942 0.0568848 17.0502 0.800944 17.0502 1.71879C17.0502 2.63663 17.7942 3.38069 18.7121 3.38069Z" fill="#0958A5"/>
<path d="M5.83991 2.4479H2.46715C2.27943 2.43435 2.1038 2.35022 1.9756 2.21243C1.84739 2.07464 1.77612 1.89341 1.77612 1.7052C1.77612 1.51699 1.84739 1.33576 1.9756 1.19797C2.1038 1.06018 2.27943 0.976046 2.46715 0.962496H5.83991C6.03498 0.952032 6.22636 1.01865 6.37277 1.14798C6.51918 1.27731 6.6089 1.459 6.62259 1.65388C6.63628 1.84875 6.57284 2.0412 6.44595 2.18974C6.31906 2.33827 6.13888 2.43099 5.94426 2.4479C5.90952 2.45046 5.87464 2.45046 5.83991 2.4479Z" fill="#F73029"/>
<path d="M19.9776 9.87485H17.4628C17.2855 9.87485 17.1154 9.8044 16.99 9.67901C16.8646 9.55362 16.7942 9.38355 16.7942 9.20622C16.7942 9.02889 16.8646 8.85882 16.99 8.73343C17.1154 8.60804 17.2855 8.5376 17.4628 8.5376H19.9776C20.1549 8.5376 20.325 8.60804 20.4504 8.73343C20.5758 8.85882 20.6462 9.02889 20.6462 9.20622C20.6462 9.38355 20.5758 9.55362 20.4504 9.67901C20.325 9.8044 20.1549 9.87485 19.9776 9.87485Z" fill="#FF9900"/>
<path d="M19.9793 6.54646H17.4645C17.2958 6.54689 17.1332 6.48354 17.0093 6.36913C16.8853 6.25472 16.8092 6.09768 16.7962 5.92951C16.7832 5.76133 16.8342 5.59445 16.939 5.4623C17.0438 5.33015 17.1947 5.2425 17.3615 5.21693C17.3958 5.21415 17.4302 5.21415 17.4645 5.21693H19.9793C20.1561 5.20327 20.3311 5.2604 20.4658 5.37577C20.6005 5.49113 20.6838 5.65528 20.6975 5.83209C20.7112 6.00891 20.654 6.18392 20.5387 6.31861C20.4233 6.45331 20.2592 6.53665 20.0823 6.55032C20.0479 6.55182 20.0135 6.55053 19.9793 6.54646Z" fill="#F73029"/>
<path d="M10.3908 10.7836C9.41318 10.773 8.47958 10.3756 7.79434 9.67831C7.10911 8.981 6.72805 8.04061 6.73458 7.06299H8.21999C8.21999 7.63871 8.44869 8.19086 8.85579 8.59796C9.26289 9.00506 9.81504 9.23377 10.3908 9.23377C10.9665 9.23377 11.5186 9.00506 11.9257 8.59796C12.3328 8.19086 12.5615 7.63871 12.5615 7.06299H14.047C14.0535 8.04061 13.6724 8.981 12.9872 9.67831C12.3019 10.3756 11.3684 10.773 10.3908 10.7836Z" fill="#59B224"/>
</svg>
