<svg width="32" height="32" viewBox="0 0 32 32" fill="none" xmlns="http://www.w3.org/2000/svg">
<rect width="32" height="32" rx="16" fill="#0958A5"/>
<path d="M16.5194 8.82048C13.1917 8.55538 10.4 10.875 10.4 13.773C10.4 16.3095 12.3369 18.8701 15.2507 22.8406C15.6035 23.3196 16.3939 23.3196 16.7466 22.8406C19.596 18.9605 21.5091 16.427 21.5973 13.9477C21.6889 11.3389 19.4433 9.05545 16.5194 8.82048ZM16.0004 15.7281C14.8776 15.7281 13.9651 14.9177 13.9651 13.9206C13.9651 12.9235 14.8776 12.1131 16.0004 12.1131C17.1232 12.1131 18.0356 12.9235 18.0356 13.9206C18.0356 14.9177 17.1232 15.7281 16.0004 15.7281Z" fill="#EBEBEB"/>
</svg>
