<svg width="21" height="21" viewBox="0 0 21 21" fill="none" xmlns="http://www.w3.org/2000/svg">
<g clip-path="url(#clip0_0_31006)">
<path fill-rule="evenodd" clip-rule="evenodd" d="M19.396 0.137695H1.604C0.994 0.137695 0.5 0.631695 0.5 1.2417V19.0337C0.5 19.6437 0.994 20.1377 1.604 20.1377H11.182V12.3927H8.576V9.3747H11.182V7.1477C11.182 4.5637 12.76 3.1577 15.065 3.1577C16.169 3.1577 17.117 3.2397 17.394 3.2767V5.9767H15.796C14.542 5.9767 14.3 6.5727 14.3 7.4467V9.3737H17.289L16.899 12.3917H14.299V20.1377H19.396C20.006 20.1377 20.5 19.6437 20.5 19.0337V1.2417C20.5 0.631695 20.006 0.137695 19.396 0.137695Z" fill="black"/>
</g>
<defs>
<clipPath id="clip0_0_31006">
<rect width="20" height="20" fill="white" transform="translate(0.5 0.137695)"/>
</clipPath>
</defs>
</svg>
