<svg width="32" height="32" viewBox="0 0 32 32" fill="none" xmlns="http://www.w3.org/2000/svg">
<rect width="32" height="32" rx="16" fill="#0958A5"/>
<path d="M21.875 10.0916C21.111 9.31982 20.201 8.70794 19.1981 8.2916C18.1951 7.87525 17.1193 7.66277 16.0334 7.66655C11.4834 7.66655 7.77504 11.3749 7.77504 15.9249C7.77504 17.3832 8.15837 18.7999 8.87504 20.0499L7.70837 24.3332L12.0834 23.1832C13.2917 23.8416 14.65 24.1916 16.0334 24.1916C20.5834 24.1916 24.2917 20.4832 24.2917 15.9332C24.2917 13.7249 23.4334 11.6499 21.875 10.0916ZM16.0334 22.7916C14.8 22.7916 13.5917 22.4582 12.5334 21.8332L12.2834 21.6832L9.68337 22.3666L10.375 19.8332L10.2084 19.5749C9.52316 18.4807 9.15932 17.2159 9.15837 15.9249C9.15837 12.1416 12.2417 9.05822 16.025 9.05822C17.8584 9.05822 19.5834 9.77489 20.875 11.0749C21.5146 11.7115 22.0215 12.4688 22.3662 13.3027C22.7109 14.1367 22.8867 15.0308 22.8834 15.9332C22.9 19.7166 19.8167 22.7916 16.0334 22.7916ZM19.8 17.6582C19.5917 17.5582 18.575 17.0582 18.3917 16.9832C18.2 16.9166 18.0667 16.8832 17.925 17.0832C17.7834 17.2916 17.3917 17.7582 17.275 17.8916C17.1584 18.0332 17.0334 18.0499 16.825 17.9416C16.6167 17.8416 15.95 17.6166 15.1667 16.9166C14.55 16.3666 14.1417 15.6916 14.0167 15.4832C13.9 15.2749 14 15.1666 14.1084 15.0582C14.2 14.9666 14.3167 14.8166 14.4167 14.6999C14.5167 14.5832 14.5584 14.4916 14.625 14.3582C14.6917 14.2166 14.6584 14.0999 14.6084 13.9999C14.5584 13.8999 14.1417 12.8832 13.975 12.4666C13.8084 12.0666 13.6334 12.1166 13.5084 12.1082H13.1084C12.9667 12.1082 12.75 12.1582 12.5584 12.3666C12.375 12.5749 11.8417 13.0749 11.8417 14.0916C11.8417 15.1082 12.5834 16.0916 12.6834 16.2249C12.7834 16.3666 14.1417 18.4499 16.2084 19.3416C16.7 19.5582 17.0834 19.6832 17.3834 19.7749C17.875 19.9332 18.325 19.9082 18.6834 19.8582C19.0834 19.7999 19.9084 19.3582 20.075 18.8749C20.25 18.3916 20.25 17.9832 20.1917 17.8916C20.1334 17.7999 20.0084 17.7582 19.8 17.6582Z" fill="white"/>
</svg>
